<svg id="Calque_1" data-name="Calque 1" xmlns="http://www.w3.org/2000/svg" viewBox="0 0 30.83 25.33"><defs><style>.cls-1{fill:#add156;}.cls-2{font-size:5.1px;font-family:MaiandraGD-Regular, Maiandra GD;}.cls-2,.cls-4{fill:#231f20;}.cls-3{fill:#d0802b;}</style></defs><title>logo-wm</title><text x="1.24" y="-1.51"/><path class="cls-1" d="M-1.24,20.48H3.65C3.3,21.81,3.41,21.83,5,21.87c.89,0,1.08.2,1.12,1.08.08,1.73.08,1.73,1.73,1.25.75-.22,1-.1,1.32.63.11.27.17.56.27.84.22.58.53.71,1.08.4.32-.19.61-.44.93-.63s.78-.3,1.1.15a11.33,11.33,0,0,0,.74.94.6.6,0,0,0,1.05,0c.24-.27.44-.56.67-.84.44-.53.73-.56,1.28-.19.3.2.59.41.9.59.47.29.78.15,1-.36.11-.32.26-.63.35-.95a.76.76,0,0,1,1-.63c.33.08.64.22,1,.31.67.2,1,0,1.05-.74,0-.33,0-.67,0-1a.75.75,0,0,1,.75-.83c.21,0,.42,0,.78,0,1.05.07,1.37-.26.89-1.4h5.61V20H-1.24Zm22.83,0a9.91,9.91,0,0,1-7.8,3.69,10,10,0,0,1-7.73-3.69ZM13.77,25A10.78,10.78,0,0,1,5,20.48h.59a10.39,10.39,0,0,0,8.26,4.06,10.26,10.26,0,0,0,8.23-4.06h.55A10.84,10.84,0,0,1,13.77,25Z" transform="translate(1.24 -1.51)"/><text class="cls-2" transform="translate(12.92 11.68) rotate(-90)">M</text><text class="cls-2" transform="translate(17.32 6.83) rotate(90)">M</text><path class="cls-3" d="M14.81,9.26,15,9.07l.24-.29.12-.16s0,0,0,0a.06.06,0,0,1,0,.06l-.12.18L15.17,9l0,0c-.08.08-.14.18-.22.26s0,.06,0,.1a.1.1,0,0,1,0,.05l.1-.14.36-.5,0,0h0a.07.07,0,0,1,0,.09l0,0a2.21,2.21,0,0,0-.22.29c0,.09-.12.18-.18.27l0,0s0,.05,0,.08h0l0,0c.11-.14.23-.28.34-.43l.1-.15h0s0,0,.06,0,0,0,0,.09l-.14.25a2.33,2.33,0,0,1-.17.26l-.22.27a.53.53,0,0,1-.25.19.23.23,0,0,1-.21,0h0l-.1.12-.31.4s0,0,0,0l-.2.25c-.13.2-.27.4-.39.6s-.25.41-.38.61a5.26,5.26,0,0,1-.43.59.81.81,0,0,1-.12.14.26.26,0,0,1-.21.06.22.22,0,0,1-.19-.25.47.47,0,0,1,.09-.22,4,4,0,0,1,.32-.4l.39-.44.51-.56.26-.31.4-.51a2.07,2.07,0,0,0,.17-.24l0,0s0,0,0,0a.3.3,0,0,1,0-.3.31.31,0,0,1,.05-.1,2.85,2.85,0,0,1,.31-.46l.34-.36a.06.06,0,0,1,.1,0,.07.07,0,0,1,0,.05l-.09.14L15,8.86,15,8.93l-.15.2,0,0s0,0,0,.05Z" transform="translate(1.24 -1.51)"/><path class="cls-3" d="M12.21,8.64a.94.94,0,0,1,.22-.07.32.32,0,0,1,.17,0,.81.81,0,0,1,.31.27c.23.31.46.61.67.93l.3.51s0,.07,0,.11l-.27.32s0,0,0,0l-.18-.28-.62-.94-.5-.77Z" transform="translate(1.24 -1.51)"/><path class="cls-3" d="M15,12.83a.24.24,0,0,1-.21-.13l-.27-.44L14,11.41l-.15-.25s0,0,0-.07l.21-.29c0-.05.08-.05.11,0a.28.28,0,0,1,0,.09.29.29,0,0,1,0,.18c-.05.08-.05.08,0,.15l.39.46c.17.21.34.41.5.62l.14.21a.2.2,0,0,1-.15.3Z" transform="translate(1.24 -1.51)"/><rect class="cls-3" y="18.51" width="30.83" height="0.47"/><path class="cls-4" d="M.89,18.56.67,16.78H.91L1,18.05l.17-1.27h.22l.17,1.27.11-1.27H2l-.21,1.78H1.48l-.16-1.18-.16,1.18Z" transform="translate(1.24 -1.51)"/><path class="cls-4" d="M3.4,18.58a.25.25,0,0,1-.22-.11.63.63,0,0,1-.06-.31v-.09a.4.4,0,0,1,.1-.3.78.78,0,0,1,.23-.13l.08,0,.08,0v-.14a.59.59,0,0,0,0-.17.09.09,0,0,0-.08,0,.11.11,0,0,0-.09.05.49.49,0,0,0,0,.15v.07H3.14v0a.5.5,0,0,1,.08-.33A.31.31,0,0,1,3.5,17a.35.35,0,0,1,.3.12.61.61,0,0,1,.08.34v1.08H3.61v-.15a.2.2,0,0,1-.08.12A.19.19,0,0,1,3.4,18.58Zm.21-.84a.41.41,0,0,0-.17.11.21.21,0,0,0,0,.15v.17a.49.49,0,0,0,0,.15.09.09,0,0,0,.08.05.12.12,0,0,0,.08,0,.2.2,0,0,0,0-.08Z" transform="translate(1.24 -1.51)"/><path class="cls-4" d="M5.88,18.38a.4.4,0,0,1-.1.3.38.38,0,0,1-.32.11.52.52,0,0,1-.36-.11l.1-.17a.35.35,0,0,0,.22.08.21.21,0,0,0,.15-.05.21.21,0,0,0,0-.14v-.12a.2.2,0,0,1-.08.1.25.25,0,0,1-.13,0,.22.22,0,0,1-.22-.12A.7.7,0,0,1,5.12,18v-.49c0-.3.09-.46.29-.46h0a.19.19,0,0,1,.2.16V17h.27Zm-.47-.23a.11.11,0,0,0,.18,0,.71.71,0,0,0,0-.19v-.5a.35.35,0,0,0,0-.16.08.08,0,0,0-.09-.06.08.08,0,0,0-.08.06.37.37,0,0,0,0,.16V18A.84.84,0,0,0,5.41,18.15Z" transform="translate(1.24 -1.51)"/><path class="cls-4" d="M7.65,17c.18,0,.26.12.26.35v1.19H7.65V17.38a.15.15,0,0,0,0-.1.1.1,0,0,0-.09,0,.11.11,0,0,0-.09.05.25.25,0,0,0,0,.13v1.14H7.14V17h.27v.18a.24.24,0,0,1,.24-.2Z" transform="translate(1.24 -1.51)"/><path class="cls-4" d="M9.52,18.58a.31.31,0,0,1-.33-.19,1.06,1.06,0,0,1,0-.33v-.57c0-.31.13-.47.39-.47a.3.3,0,0,1,.28.13.57.57,0,0,1,.08.35v.32H9.42v.3a.4.4,0,0,0,0,.2.08.08,0,0,0,.08.05.08.08,0,0,0,.07,0,.16.16,0,0,0,0-.09V18H9.9v.08a1.1,1.1,0,0,1,0,.3.32.32,0,0,1-.08.13A.41.41,0,0,1,9.52,18.58Zm-.1-.92h.21v-.19a.44.44,0,0,0,0-.18s0-.05-.08-.05h0c-.07,0-.11.05-.11.16v.26Z" transform="translate(1.24 -1.51)"/><path class="cls-4" d="M11.67,17v.23a.45.45,0,0,0-.16,0,.16.16,0,0,0-.1.08v1.2h-.27V17h.27v.17a.34.34,0,0,1,.09-.14A.31.31,0,0,1,11.67,17Z" transform="translate(1.24 -1.51)"/><path class="cls-3" d="M13.71,17.88v-.17h.49v.17Z" transform="translate(1.24 -1.51)"/><path class="cls-4" d="M16.07,18.56V16.77h.34l.25,1.3.24-1.3h.34v1.79H17V17.28l-.24,1.27h-.22l-.25-1.27v1.28Z" transform="translate(1.24 -1.51)"/><path class="cls-4" d="M18.76,18.57a.22.22,0,0,1-.21-.11.6.6,0,0,1-.07-.3v-.1a.41.41,0,0,1,.11-.3.68.68,0,0,1,.23-.12l.08,0,.07,0v-.14a.62.62,0,0,0,0-.16.08.08,0,0,0-.08-.05.09.09,0,0,0-.09.05.51.51,0,0,0,0,.16v.06H18.5v0a.57.57,0,0,1,.08-.33.44.44,0,0,1,.58,0,.53.53,0,0,1,.09.34v1.09H19V18.4a.2.2,0,0,1-.08.12A.22.22,0,0,1,18.76,18.57Zm.21-.84a.5.5,0,0,0-.17.11.21.21,0,0,0,0,.15v.17a.3.3,0,0,0,0,.15.08.08,0,0,0,.07.05.08.08,0,0,0,.08,0,.09.09,0,0,0,0-.07Z" transform="translate(1.24 -1.51)"/><path class="cls-4" d="M21,17a1,1,0,0,1,0,.17v0l-.16,0a.16.16,0,0,0-.1.08v1.21H20.5V17h.27v.17a.28.28,0,0,1,.1-.14A.27.27,0,0,1,21,17Z" transform="translate(1.24 -1.51)"/><path class="cls-4" d="M22.47,18.57a.25.25,0,0,1-.19-.06.29.29,0,0,1-.05-.19V17.26h-.12v-.2h.12v-.29h.27v.29h.15v.2H22.5v1a.08.08,0,0,0,0,.07h.13v.21Z" transform="translate(1.24 -1.51)"/><path class="cls-4" d="M23.85,16.89v-.23h.27v.23Zm0,1.67V17h.27v1.53Z" transform="translate(1.24 -1.51)"/><path class="cls-4" d="M25.9,17c.18,0,.27.11.27.34v1.2H25.9V17.37a.15.15,0,0,0,0-.1.1.1,0,0,0-.09,0,.11.11,0,0,0-.09.05.25.25,0,0,0,0,.13v1.15h-.27V17h.27v.18a.25.25,0,0,1,.08-.14A.24.24,0,0,1,25.9,17Z" transform="translate(1.24 -1.51)"/><rect class="cls-3" y="18.51" width="30.83" height="0.47"/><path class="cls-1" d="M25.9,15l.17-.15c.62-.54.61-.81-.06-1.33-1.32-1-1.32-1-.37-2.44.43-.65.32-1.08-.42-1.3-1.41-.42-1.78-.26-1.12-2.26,0,0,0-.07,0-.11.15-.54,0-.81-.58-.88-.36,0-.72,0-1.08,0-.74,0-.92-.23-.93-1V5c0-1.13-.17-1.26-1.26-1-1.49.34-1.49.34-2-1.1-.35-.92-.52-1-1.35-.45-1.34.87-1.34.87-2.36-.38-.6-.73-.86-.73-1.45,0-1,1.35-1,1.29-2.32.38C9.92,1.86,9.7,2,9.37,3S9,4.25,7.53,4c-.1,0-.21,0-.31-.06-.89-.2-1.09-.07-1.09.81,0,1.75-.19,1.73-1.76,1.72-.83,0-1,.28-.8,1.07C4,9.17,4,9.17,2.45,9.74,1.71,10,1.57,10.39,2,11c1,1.46,1.06,1.44-.39,2.49-.63.45-.63.81,0,1.3l.21.16h-3v.46H7.55a.58.58,0,0,1,0-.37l0-.09H3.84c0-.27,0-.54,0-.82a10,10,0,0,1,20,.08c0,.25,0,.49,0,.74H21.34l-.07.11v.35h8.32V15Zm-1.23-.28a2.64,2.64,0,0,1,0,.28h-.46q0-.39,0-.78a10.39,10.39,0,0,0-20.78,0c0,.26,0,.53,0,.8H3c0-.34,0-.68,0-1a10.86,10.86,0,1,1,21.7.74Z" transform="translate(1.24 -1.51)"/><rect class="cls-3" y="13.46" width="30.83" height="0.47"/></svg>